<svg xmlns="http://www.w3.org/2000/svg" width="180" height="112" viewBox="0 0 180 112"><g><g><path fill="#222" d="M177.327 101.44c-.597-.491-1.378-.736-2.345-.736-.85 0-1.557.193-2.122.578-.565.385-.99.923-1.275 1.611-.285.69-.43 1.49-.436 2.404-.005.908.135 1.707.42 2.396.285.689.713 1.228 1.283 1.615.57.389 1.28.582 2.13.582.967 0 1.748-.246 2.345-.74.596-.493 1.01-1.163 1.243-2.007l1.434.38c-.323 1.13-.91 2.031-1.763 2.705-.852.673-1.939 1.009-3.259 1.009-1.135 0-2.098-.25-2.89-.752-.792-.502-1.396-1.199-1.81-2.091-.415-.892-.622-1.925-.622-3.097s.207-2.204.622-3.096c.414-.893 1.018-1.59 1.81-2.092.792-.5 1.755-.752 2.89-.752 1.32 0 2.407.335 3.26 1.006.852.67 1.44 1.573 1.762 2.709l-1.434.38c-.232-.85-.647-1.52-1.243-2.012zM148.17 30.26h31.831v4.007h-27.718V53.83h23.427v4.006h-23.427v19.92h27.718v4.007h-31.83zm1.404 79.401h5.291v1.338h-6.7V99.595h1.41zm-36.3-79.428v51.44c-.01 16.262-13.195 29.441-29.459 29.441v-4.122c13.987 0 25.326-11.333 25.338-25.317V30.223C109.17 13.966 122.353.792 138.614.792v4.122c-13.988 0-25.328 11.334-25.338 25.32zm-43.128.028h4.113v51.502h-4.113zM31.723 81.763L22 61.698H4.112v20.065H0V30.26h19.42c.502 0 1.044.018 1.628.054a15.24 15.24 0 0 1 1.842.232c2.575.406 4.787 1.33 6.635 2.772 1.847 1.443 3.26 3.254 4.238 5.436.977 2.182 1.466 4.584 1.466 7.207 0 3.791-1.013 7.094-3.04 9.907-1.54 2.137-3.54 3.68-6 4.635l10.364 21.259zM27.181 55.1a10.723 10.723 0 0 0 2.79-4.096c.62-1.596.93-3.278.93-5.042 0-1.764-.31-3.44-.93-5.025a10.76 10.76 0 0 0-2.79-4.077c-1.24-1.133-2.79-1.89-4.65-2.271a14.429 14.429 0 0 0-1.698-.25 17.91 17.91 0 0 0-1.485-.072H4.112v23.39h15.236a20.949 20.949 0 0 0 3.183-.286c1.86-.38 3.41-1.138 4.65-2.271zM162.849 111h-1.41V99.594h1.41z"/></g></g></svg>