<svg xmlns="http://www.w3.org/2000/svg" width="327" height="234" viewBox="0 0 327 234"><g><g><path fill="#13584f" d="M186.387 132.515c-.735-1.166-1.327-2.281-2.083-3.271-3.424-4.485-8.02-7.213-13.393-8.7-7.438-2.057-14.912-1.65-22.372-.138-7.757 1.573-14.881 4.745-21.715 8.673-8.026 4.61-16.01 9.306-24.191 13.63-6.558 3.465-13.585 5.777-21.064 6.31-14.32 1.02-25.243-4.926-33.26-16.542-3.89-5.64-5.968-11.953-6.218-18.831a26.93 26.93 0 0 1-.014-1.806c.07-2.308.114-2.37 2.309-2.841 4.047-.868 8.098-1.722 12.146-2.581 21.129-4.483 42.257-8.965 63.383-13.453.712-.152 1.41-.37 2.469-.65-.71-.897-1.219-1.602-1.794-2.251-11.774-13.27-26.704-19.98-44.254-21.05-9.872-.602-19.332 1.253-28.305 5.475-1.498.705-3.003 1.407-4.54 2.021-5.234 2.095-9.939 1.315-13.798-2.907a96 96 0 0 1-6.31-7.657c-6.114-8.263-11.207-17.129-15.16-26.624C4.802 31.1 2.21 22.617.519 13.866c-.152-.79-.212-1.6-.339-2.594C25.019 4.075 50.162.63 76.03.784c1.358 20.292 10.184 36.555 25.817 49.12 8.297 6.669 17.736 10.97 28.678 12.828-.276-.9-.406-1.514-.648-2.082-4.212-9.909-8.445-19.808-12.66-29.715-3.448-8.106-6.882-16.218-10.316-24.33-.171-.406-.285-.833-.42-1.237 6.668-3.266 55.694-3.2 67.434.114l-.574 2.285c-1.69 6.715-3.594 13.383-5.014 20.154-1.589 7.564-1.91 15.246-.382 22.888 2.04 10.188 7.162 18.436 15.808 24.34 3.878 2.648 8.216 4.058 12.913 4.307 2.041.108 2.126.055 2.654-1.905 4.022-14.944 4.06-29.912.083-44.86-.83-3.119-2.01-6.145-3.037-9.211-.53-1.582-.522-1.832.878-2.544 6.856-3.483 13.772-6.831 21.47-8.077 6.6-1.067 12.923-.302 18.8 3.033 5.291 3.003 8.606 7.489 9.508 13.544.442 2.968.654 5.986.739 8.988.679 23.85 1.3 47.703 1.946 71.553.086 3.187 2.081 5.108 5.284 5.11.523 0 1.049-.08 1.568-.16 2.384-.369 4.378-1.583 6.236-3.015 3.274-2.523 5.856-5.62 7.509-9.444 10.217-23.633 12.92-48.092 8.078-73.382-.139-.73-.225-1.471-.355-2.337.443-.071.798-.214 1.13-.17 6.339.864 12.691 1.654 19.007 2.675 2.583.418 5.131 1.213 7.614 2.07 6.373 2.203 10.877 6.518 13.86 12.534 2.566 5.175 4.143 10.648 5.184 16.298 2.002 10.87 2.112 21.845 1.952 32.85-.67 46.112-24.957 90.115-57.51 115.884-8.005 6.337-16.578 11.781-25.919 15.902-27.045 11.93-54.255 12.251-81.588.906-1.632-.678-2.463-1.645-2.826-3.397-.992-4.8-.188-9.3 2.004-13.576 3.418-6.67 8.764-11.402 15.337-14.816 5.567-2.892 11.622-4.124 17.77-4.855 6.426-.764 12.881-1.277 19.318-1.951 5.475-.574 10.904-1.431 16.083-3.398 6.825-2.594 12.685-6.563 17.145-12.414 2.906-3.812 4.629-8.085 4.648-12.948.001-.6-.04-1.203-.102-1.8-.02-.207-.171-.4-.316-.714-.406 0-.844-.048-1.27.007-15.007 1.926-29.995 3.972-44.73 7.521-11.005 2.652-21.741 6.114-31.956 11.04-6.86 3.307-13.272 7.395-19.6 11.622-6.01 4.015-12.01 8.075-18.736 10.835-3.054 1.252-6.178 2.47-9.386 3.182-9.822 2.182-18.865.175-26.873-5.92-4.212-3.206-6.97-7.4-7.749-12.799-.32-2.23.258-3.625 2.294-4.755 6.186-3.43 12.253-7.072 18.41-10.555 9.967-5.64 20.217-10.726 30.63-15.486 13.362-6.109 26.976-11.587 40.878-16.348 1.18-.403 2.284-1.028 3.657-1.658z"/></g></g></svg>