<svg xmlns="http://www.w3.org/2000/svg" width="317" height="122" viewBox="0 0 317 122"><g><g><path fill="#b5b8a3" d="M106.764 34.615c-9.64 1.065-14.02 7.583-16.725 15.034-2.254 6.212-3.006 12.962-4.509 19.455-1.25 5.409-2.353 10.873-4.008 16.163-2.299 7.352-7.332 12.473-15.006 13.624-14.243 2.136-28.582 3.629-43.467 5.463-3.476-14.975-7.155-28.936-9.856-43.083-1.96-10.268 1.89-19.33 10.638-24.9 10.639-6.773 22.331-11.884 33.045-18.555C64.675 12.961 72.128 7.262 78.721.891c2.877-2.782 3.218-8.186 4.86-12.821-17.556-3.768-28.68 5.09-39.418 14.784-9.568 8.638-18.841 17.613-28.615 26.006-3.26 2.798-7.665 4.26-12.082 6.62-5.81-11.28-1.919-21.072 3.166-30.087 9.974-17.683 26.594-27.1 45.149-33.321 12.863-4.313 26.138-7.416 38.936-11.895 7.249-2.537 14.213-6.289 20.674-10.468 2.426-1.57 4.86-6.522 4.063-8.807-.97-2.784-5.369-6.186-8.236-6.143-7.193.11-14.682 1.065-21.478 3.374-19.386 6.588-35.982 18.285-52.464 30.156-9.544 6.875-19.369 13.464-29.594 19.253C-4.18-8.007-7.39-9.921-9.743-18.723c-3.041-11.372-.43-22.283 6.421-31.03C15.307-73.537 39.055-89.77 69.88-92.865c9.42-.946 19.117 1.23 28.654.93a77.995 77.995 0 0 0 20.795-3.542c4.94-1.559 8.647-5.785 8.139-11.76-.486-5.71-4.707-8.339-9.582-9.905-14.904-4.793-28.762-.514-41.85 6.078-15.475 7.796-30.277 16.928-45.726 24.78-6.047 3.072-12.951 4.774-19.66 6.15-9.675 1.982-14.19-3-11.549-12.488 6.347-22.793 22.13-36.382 43.845-43.845 21.089-7.248 42.195-3.788 63.357-.058 8.297 1.463 16.773 1.962 25.188 2.665 2.393.2 4.901-.212 7.28-.712 8.411-1.77 13.863-6.042 13.832-11.473-.042-7.539-5.265-12.066-11.532-13.964-6.669-2.022-14.044-3.369-20.916-2.77-26.384 2.3-52.69 5.501-79.025 8.356-1.712.185-3.432.297-7.012.6 2.578-5.367 3.986-10.06 6.745-13.742 12.531-16.716 29.515-27.747 48.816-34.723 14.805-5.35 27.891.688 39.769 9.679 7.446 5.638 14.693 11.594 22.515 16.656 4.537 2.935 9.866 5.302 15.144 6.28 8.22 1.523 13.582-3.653 13.97-12.111.389-8.493-3.792-14.478-10.82-18.574-14.592-8.505-30.9-10.928-47.288-13.018-5.507-.702-11.265-.793-16.393-2.614-3.277-1.165-7.43-4.728-7.851-7.692-.418-2.942 2.54-7.727 5.395-9.564 30.004-19.303 85.112-25.585 117.463-.335 3.492 2.725 6.524 6.047 9.706 9.158 2.229 2.18 4.245 4.581 6.534 6.69 10.824 9.97 19.697 9.206 27.14-3.648 6.886-11.895 12.326-24.627 18.42-36.98 2.549-5.165 4.297-11.066 8.002-15.205 2.624-2.932 8.555-5.54 11.86-4.53 3.744 1.145 8.078 6.111 8.873 10.076 2.4 11.961-2.913 22.619-8.547 32.84-9.95 18.06-22.523 34.123-38.736 49.799 27.422-4.378 50.784 2.13 70.109 19.79 19.357 17.688 27.783 40.167 25.735 66.277l-1.765 1.666c-7.353-6.19-14.813-12.257-22.028-18.604-7.184-6.318-13.819-13.29-21.25-19.288-7.68-6.2-16.413-10.538-26.647-11.079-9.43-.498-14.206 1.799-16.216 8.236-2.115 6.779 1.322 16.278 8.595 18.988 8.16 3.04 16.967 5.416 25.61 5.879 21.478 1.149 33.59 9.503 38.889 30.562 2.578 10.245 3.003 21.038 4.3 31.596.186 1.514.009 3.151-.364 4.64-1.704 6.785-3.608 14.198-11.172 16.107-7.02 1.772-10.45-4.861-13.947-9.476-10.062-13.276-19.105-27.374-29.772-40.126-8.863-10.596-20.555-17.705-34.954-18.886-1.987-.163-4.322-.665-5.932.131-3.142 1.55-7.715 3.474-8.32 6.04-.732 3.101 1.044 8.138 3.514 10.349 4.21 3.767 9.751 6.09 14.836 8.83 13.895 7.492 27.475 15.126 38.312 27.219 20.539 22.917 19.43 64.175-3.4 85.095-5.819 5.333-12.738 9.54-19.447 13.8-3.915 2.485-8.138 2.193-9.39-3.213-2.333-10.069-5.53-20.202-5.928-30.403-1.009-25.901-5.639-50.57-21.183-71.853-3.973-5.44-10.147-10.168-16.34-12.743-3.565-1.48-10.404.73-13.526 3.665-2.588 2.433-3.617 9.003-2.273 12.593 2.35 6.273 6.68 11.952 10.836 17.375 13.6 17.754 26.986 35.704 31.234 58.28 5.113 27.176-1.275 50.863-23.923 68.412-4.298 3.33-9.525 5.798-14.695 7.596-12.19 4.24-18.136-.892-16.433-13.61 1.565-11.685 3.77-23.323 4.61-35.06 1.746-24.384-.612-48.458-7.63-71.969-.57-1.906-1.204-3.895-2.294-5.521-2.934-4.382-6.402-8.517-12.457-6.952-6.254 1.616-9.336 6.558-8.814 12.561.612 7.032 2.435 13.985 4.04 20.9 5.754 24.78 10.54 49.698 9.05 75.301-.853 14.668-5.012 28.189-17.772 37.17-3.336 2.35-7.524 3.968-11.55 4.768-12.328 2.448-19.109-5.399-16.322-17.62 5.88-25.794 11.485-51.65 16.92-77.54.945-4.495 1.077-9.347.567-13.92-.847-7.595-7.598-13.024-13.59-11.732-5.45 1.174-7.967 6.829-6.223 14.83 4.54 20.823 4.834 41.576-1.524 62.052-5.09 16.389-12.676 31.387-26.927 41.97-4.5 3.343-9.302 5.317-14.818 2.068-5.312-3.13-4.559-8.142-4.14-13.038 1.723-20.233 8-39.162 16.46-57.472 2.114-4.576 4.956-9.154 1.279-14.646z"/></g></g></svg>