<svg xmlns="http://www.w3.org/2000/svg" width="125" height="378" viewBox="0 0 125 378"><g><g><path fill="#f8c6cd" d="M17.94 332.817c53.876 21.768 53.428 22.877 107.303 44.644 53.875 21.769 55.207 18.473 109.082 40.24 53.878 21.77 53.046 23.826 106.923 45.595 53.885 21.772 53.599 22.48 107.483 44.253 53.884 21.772 54.32 20.694 108.205 42.466 22.129 8.942 40.657-13.75 27.893-33.896-32.098-50.664-26.181-54.4-58.279-105.063-32.098-50.664-36.18-48.087-68.278-98.751-32.099-50.664-29.606-52.237-61.704-102.9-32.1-50.666-32.364-50.499-64.464-101.165C300 57.567 302.072 56.258 269.968 5.585c-32.104-50.672-38.146-46.858-70.25-97.531-10.757-16.98-35.528-15.939-42.882 2.749-25.596 65.045-21.718 66.57-47.313 131.614-25.6 65.055-27.764 64.204-53.364 129.257-25.599 65.054-29.187 63.644-54.786 128.699-4.927 12.52 4.073 27.395 16.568 32.444z"/></g><g><path fill="#e8792e" d="M25.312 198.876L9.478 211.334l42.397 67.641 16.191-13.103z"/></g></g></svg>