<svg xmlns="http://www.w3.org/2000/svg" width="334" height="283" viewBox="0 0 334 283"><g><g><path fill="#e7be99" d="M-87.348 234.274c-4.535-20.73-9.092-41.458-13.6-62.194-1.979-9.1-.688-12.01 7.817-15.218 6.93-2.612 13.963-4.916 21.18-6.837 40.165-10.695 80.76-19.492 121.373-28.221 19.604-4.215 39.532-5.64 59.495-6.731 8.256-.451 16.519-.805 24.77-1.341 14.722-.956 29.08 1.472 43.407 4.38 6.168 1.251 12.348 2.482 18.563 3.458 21.334 3.353 39.127 13.001 54.591 28.168 15.811 15.507 29.887 32.405 43.697 49.606 13.523 16.843 24.645 34.831 30.79 55.912 3.825 13.125 9.477 25.74 11.722 39.344 2.376 14.397 3.479 28.896 2.42 43.494-.476 6.56-1.02 13.117-1.594 19.67-.2 2.279-.193 4.68-.945 6.788-5.365 15.042-8.942 30.8-17.179 44.714-22.084 37.307-51.203 68.033-87.827 91.192-18.097 11.442-37.297 21.092-57.112 29.404-11.842 4.966-23.321 10.753-35.35 15.34-8.548 3.258-16.976 6.664-25.96 8.647-7.518 1.662-14.974 4.498-22.326 5.78-8.5 1.483-16.428 4.517-24.758 6.237-12.918 2.668-25.718 5.912-38.65 8.494-6.792 1.356-12.795 4.918-19.659 6.04-9.146 1.497-10.514.62-14.128-7.718-2.543-5.865-4.204-11.889-5.288-18.075-3.663-20.915-10.832-40.943-15.337-61.638-.61-2.803-1.855-5.684-1.598-8.415.854-9.072-3.399-16.759-6.532-24.583-3.286-8.208-4.115-16.573-4.446-25.147-.138-3.545 1.943-5.706 4.832-7.5 6.069-3.768 13.114-3.65 19.666-5.444 18.784-5.142 38.795-6.424 54.767-20.214 14.24-12.295 19.865-27.268 19.631-45.42-.129-9.934-3.28-18.972-6.754-28.041-5.762-15.043-17.092-24.072-31.749-29.267-16.217-5.75-32.925-8.668-49.587-2.633-10.596 3.837-21.52 5.885-32.353 8.504-9.657 2.334-10.11 1.94-12.188-7.505-4.623-21.005-9.205-42.02-13.801-63.03z"/></g><g><path fill="#13584f" d="M50.889 61.995c9.207-5.374 16.653-9.97 21.805-17.555 9.489-13.966 20.453-26.586 34.014-36.768 6.397-4.803 13.201-8.58 21.733-6.841 9.609 1.956 14.474 12.385 9.385 20.767-10.417 17.157-27.447 24.774-45.444 30.746-5.32 1.765-10.818 3.333-16.598 2.668-3.685-.424-6.75 1.485-9.346 3.435-20.89 15.688-35.774 36.224-47.824 59.278 4.543 2.179 6.17-1.658 8.121-3.371C45.17 98.167 65.567 85.893 90.055 81.43c10.349-1.886 20.701-2.587 31.022.308 5.188 1.455 9.047 3.937 10.35 9.787 1.341 6.022-.621 10.559-5.015 14.255-12.72 10.699-28.126 16.072-43.624 20.782-21.89 6.651-44.122 11.983-67.345 8.885-3.85-.515-5.221 1.982-6.11 4.534C4.8 152.976.334 166.007-2.496 181.361c11.52-7.477 21.52-14.26 32.468-19.495 18.255-8.731 37.39-11.967 57.378-10.247 6.682.575 14.819 1.281 15.88 9.68.91 7.185-4.513 12.094-10.769 15.436-13.379 7.148-28.134 9.38-42.791 11.842-15.745 2.645-31.544 2.032-47.276-.237-3.293-.475-5.255-.077-6.377 3.43-.935 2.92-3.582 3.307-6.332 2.6-3.195-.822-2.91-3.61-2.184-5.5 4.217-10.97-2.343-18.219-7.813-26.511-18.864-28.6-23.235-60.252-17.583-93.54 1.307-7.699 5.82-13.648 14.053-14.881 8.423-1.262 12.742 4.745 16.282 11.048 10.036 17.868 12.38 37.633 14.541 57.86 5.984-13.047 18.133-23.525 15.07-40.316-2.828-15.49-.784-31.01.873-46.485.776-7.254 3.92-13.513 8.22-19.15 3.839-5.033 8.856-9.91 15.52-7.924 7.486 2.23 10.645 9.09 10.597 16.596-.05 7.871-.515 15.774-3.605 23.326-1.44 3.52-1.647 7.546-2.768 13.102z"/></g></g></svg>