<svg xmlns="http://www.w3.org/2000/svg" width="131" height="108" viewBox="0 0 131 108"><g><g><path fill="#e8792e" d="M11.369 46.828C7.803 47.88 3.95 49.132 1.87 52.215c-2.564 3.8-1.48 8.927.145 13.213 8.252 21.766 28.829 38.363 51.848 41.821 23.02 3.459 47.565-6.36 61.85-24.74 10.857-13.972 21.288-44.75 9.93-61.326-6.617-9.659-21.215-1.778-29.866.772L56.142 33.634C41.218 38.033 26.293 42.43 11.37 46.828z"/></g><g><path fill="#e7be99" d="M47.44 4.36c-9.21 5.77-16.286 16.624-13.881 27.223 2.044 9.012 10.848 15.654 20.06 16.375 12.103.948 24.183-8.186 26.57-20.09 1.834-9.143-2.217-18.826-9.318-24.664-6.848-5.63-16.34-3.286-23.43 1.155z"/></g></g></svg>